<svg xmlns="http://www.w3.org/2000/svg" width="512" height="512" viewBox="0 0 512 512" fill="none">
  <rect x="12" y="12" width="488" height="488" rx="44" fill="#F6F0E8" stroke="#121212" stroke-width="2"/>
  <rect x="28" y="28" width="456" height="44" fill="#121212" fill-opacity="0.06"/>
  <rect x="28" y="28" width="26" height="456" fill="#962A2A"/>
  <rect x="130" y="190" width="250" height="180" rx="16" stroke="#121212" stroke-width="10"/>
  <line x1="255" y1="198" x2="255" y2="360" stroke="#962A2A" stroke-width="10"/>
  <line x1="160" y1="230" x2="225" y2="230" stroke="#121212" stroke-opacity="0.55" stroke-width="4"/>
  <line x1="285" y1="230" x2="350" y2="230" stroke="#121212" stroke-opacity="0.55" stroke-width="4"/>
  <line x1="160" y1="280" x2="225" y2="280" stroke="#121212" stroke-opacity="0.55" stroke-width="4"/>
  <line x1="285" y1="280" x2="350" y2="280" stroke="#121212" stroke-opacity="0.55" stroke-width="4"/>
  <line x1="160" y1="330" x2="225" y2="330" stroke="#121212" stroke-opacity="0.55" stroke-width="4"/>
  <line x1="285" y1="330" x2="350" y2="330" stroke="#121212" stroke-opacity="0.55" stroke-width="4"/>
  <polygon points="384.0,90.0 396.9,114.2 423.9,119.0 404.9,138.8 408.7,166.0 384.0,154.0 359.3,166.0 363.1,138.8 344.1,119.0 371.1,114.2" fill="#962A2A" fill-opacity="0.28" stroke="#962A2A" stroke-width="3"/>
  <text x="150" y="414" font-family="Arial, Helvetica, sans-serif" font-size="34" font-weight="700" fill="#121212">CULTURE JUNKIE</text>
  <text x="150" y="484" font-family="Arial, Helvetica, sans-serif" font-size="16" fill="#121212" fill-opacity="0.65">EDITORIAL ICON</text>
</svg>
