<svg xmlns="http://www.w3.org/2000/svg" viewBox="0 0 1600 220" width="1600" height="220" fill="none">
  <rect width="1600" height="220" fill="#f7f3eb"/>
  <g fill="#d9d3c8">
    <circle cx="40" cy="26" r="1.4"/>
    <circle cx="92" cy="26" r="1.6"/>
    <circle cx="144" cy="26" r="1.8"/>
    <circle cx="196" cy="26" r="2"/>
    <circle cx="248" cy="26" r="2.2"/>
    <circle cx="300" cy="26" r="1.4"/>
    <circle cx="352" cy="26" r="1.6"/>
    <circle cx="404" cy="26" r="1.8"/>
    <circle cx="456" cy="26" r="2"/>
    <circle cx="508" cy="26" r="2.2"/>
    <circle cx="560" cy="26" r="1.4"/>
    <circle cx="612" cy="26" r="1.6"/>
    <circle cx="664" cy="26" r="1.8"/>
    <circle cx="716" cy="26" r="2"/>
    <circle cx="768" cy="26" r="2.2"/>
    <circle cx="820" cy="26" r="1.4"/>
    <circle cx="872" cy="26" r="1.6"/>
    <circle cx="924" cy="26" r="1.8"/>
    <circle cx="976" cy="26" r="2"/>
    <circle cx="1028" cy="26" r="2.2"/>
    <circle cx="1080" cy="26" r="1.4"/>
    <circle cx="1132" cy="26" r="1.6"/>
    <circle cx="1184" cy="26" r="1.8"/>
    <circle cx="1236" cy="26" r="2"/>
    <circle cx="1288" cy="26" r="2.2"/>
    <circle cx="1340" cy="26" r="1.4"/>
    <circle cx="1392" cy="26" r="1.6"/>
    <circle cx="1444" cy="26" r="1.8"/>
    <circle cx="1496" cy="26" r="2"/>
    <circle cx="1548" cy="26" r="2.2"/>
    <circle cx="40" cy="68" r="1.4"/>
    <circle cx="92" cy="68" r="1.6"/>
    <circle cx="144" cy="68" r="1.8"/>
    <circle cx="196" cy="68" r="2"/>
    <circle cx="248" cy="68" r="2.2"/>
    <circle cx="300" cy="68" r="1.4"/>
    <circle cx="352" cy="68" r="1.6"/>
    <circle cx="404" cy="68" r="1.8"/>
    <circle cx="456" cy="68" r="2"/>
    <circle cx="508" cy="68" r="2.2"/>
    <circle cx="560" cy="68" r="1.4"/>
    <circle cx="612" cy="68" r="1.6"/>
    <circle cx="664" cy="68" r="1.8"/>
    <circle cx="716" cy="68" r="2"/>
    <circle cx="768" cy="68" r="2.2"/>
    <circle cx="820" cy="68" r="1.4"/>
    <circle cx="872" cy="68" r="1.6"/>
    <circle cx="924" cy="68" r="1.8"/>
    <circle cx="976" cy="68" r="2"/>
    <circle cx="1028" cy="68" r="2.2"/>
    <circle cx="1080" cy="68" r="1.4"/>
    <circle cx="1132" cy="68" r="1.6"/>
    <circle cx="1184" cy="68" r="1.8"/>
    <circle cx="1236" cy="68" r="2"/>
    <circle cx="1288" cy="68" r="2.2"/>
    <circle cx="1340" cy="68" r="1.4"/>
    <circle cx="1392" cy="68" r="1.6"/>
    <circle cx="1444" cy="68" r="1.8"/>
    <circle cx="1496" cy="68" r="2"/>
    <circle cx="1548" cy="68" r="2.2"/>
    <circle cx="40" cy="110" r="1.4"/>
    <circle cx="92" cy="110" r="1.6"/>
    <circle cx="144" cy="110" r="1.8"/>
    <circle cx="196" cy="110" r="2"/>
    <circle cx="248" cy="110" r="2.2"/>
    <circle cx="300" cy="110" r="1.4"/>
    <circle cx="352" cy="110" r="1.6"/>
    <circle cx="404" cy="110" r="1.8"/>
    <circle cx="456" cy="110" r="2"/>
    <circle cx="508" cy="110" r="2.2"/>
    <circle cx="560" cy="110" r="1.4"/>
    <circle cx="612" cy="110" r="1.6"/>
    <circle cx="664" cy="110" r="1.8"/>
    <circle cx="716" cy="110" r="2"/>
    <circle cx="768" cy="110" r="2.2"/>
    <circle cx="820" cy="110" r="1.4"/>
    <circle cx="872" cy="110" r="1.6"/>
    <circle cx="924" cy="110" r="1.8"/>
    <circle cx="976" cy="110" r="2"/>
    <circle cx="1028" cy="110" r="2.2"/>
    <circle cx="1080" cy="110" r="1.4"/>
    <circle cx="1132" cy="110" r="1.6"/>
    <circle cx="1184" cy="110" r="1.8"/>
    <circle cx="1236" cy="110" r="2"/>
    <circle cx="1288" cy="110" r="2.2"/>
    <circle cx="1340" cy="110" r="1.4"/>
    <circle cx="1392" cy="110" r="1.6"/>
    <circle cx="1444" cy="110" r="1.8"/>
    <circle cx="1496" cy="110" r="2"/>
    <circle cx="1548" cy="110" r="2.2"/>
    <circle cx="40" cy="152" r="1.4"/>
    <circle cx="92" cy="152" r="1.6"/>
    <circle cx="144" cy="152" r="1.8"/>
    <circle cx="196" cy="152" r="2"/>
    <circle cx="248" cy="152" r="2.2"/>
    <circle cx="300" cy="152" r="1.4"/>
    <circle cx="352" cy="152" r="1.6"/>
    <circle cx="404" cy="152" r="1.8"/>
    <circle cx="456" cy="152" r="2"/>
    <circle cx="508" cy="152" r="2.2"/>
    <circle cx="560" cy="152" r="1.4"/>
    <circle cx="612" cy="152" r="1.6"/>
    <circle cx="664" cy="152" r="1.8"/>
    <circle cx="716" cy="152" r="2"/>
    <circle cx="768" cy="152" r="2.2"/>
    <circle cx="820" cy="152" r="1.4"/>
    <circle cx="872" cy="152" r="1.6"/>
    <circle cx="924" cy="152" r="1.8"/>
    <circle cx="976" cy="152" r="2"/>
    <circle cx="1028" cy="152" r="2.2"/>
    <circle cx="1080" cy="152" r="1.4"/>
    <circle cx="1132" cy="152" r="1.6"/>
    <circle cx="1184" cy="152" r="1.8"/>
    <circle cx="1236" cy="152" r="2"/>
    <circle cx="1288" cy="152" r="2.2"/>
    <circle cx="1340" cy="152" r="1.4"/>
    <circle cx="1392" cy="152" r="1.6"/>
    <circle cx="1444" cy="152" r="1.8"/>
    <circle cx="1496" cy="152" r="2"/>
    <circle cx="1548" cy="152" r="2.2"/>
  </g>
  <path d="M0 200h1600" stroke="#111111" stroke-width="3"/>
</svg>
